<?xml version="1.0" encoding="utf-8" standalone="no"?>
<!DOCTYPE svg PUBLIC "-//W3C//DTD SVG 1.1//EN"
  "http://www.w3.org/Graphics/SVG/1.1/DTD/svg11.dtd">
<svg xmlns:xlink="http://www.w3.org/1999/xlink" width="460.8pt" height="345.6pt" viewBox="0 0 460.8 345.6" xmlns="http://www.w3.org/2000/svg" version="1.1">
 <metadata>
  <rdf:RDF xmlns:dc="http://purl.org/dc/elements/1.1/" xmlns:cc="http://creativecommons.org/ns#" xmlns:rdf="http://www.w3.org/1999/02/22-rdf-syntax-ns#">
   <cc:Work>
    <dc:type rdf:resource="http://purl.org/dc/dcmitype/StillImage"/>
    <dc:date>2023-02-11T22:43:11.417242</dc:date>
    <dc:format>image/svg+xml</dc:format>
    <dc:creator>
     <cc:Agent>
      <dc:title>Matplotlib v3.6.2, https://matplotlib.org/</dc:title>
     </cc:Agent>
    </dc:creator>
   </cc:Work>
  </rdf:RDF>
 </metadata>
 <defs>
  <style type="text/css">*{stroke-linejoin: round; stroke-linecap: butt}</style>
 </defs>
 <g id="figure_1">
  <g id="patch_1">
   <path d="M 0 345.6 
L 460.8 345.6 
L 460.8 0 
L 0 0 
z
" style="fill: #ffffff"/>
  </g>
  <g id="axes_1">
   <g id="patch_2">
    <path d="M 57.6 260.909299 
L 219.927273 260.909299 
L 219.927273 88.146701 
L 57.6 88.146701 
z
" style="fill: #ffffff"/>
   </g>
   <g id="matplotlib.axis_1">
    <g id="xtick_1">
     <g id="line2d_1">
      <path d="M 64.978512 260.909299 
L 64.978512 88.146701 
" clip-path="url(#p0e23c05640)" style="fill: none; stroke: #cccccc; stroke-width: 0.8; stroke-linecap: round"/>
     </g>
     <g id="line2d_2"/>
     <g id="text_1">
      <!-- 50 -->
      <g style="fill: #262626" transform="translate(59.417575 271.656174) scale(0.1 -0.1)">
       <defs>
        <path id="LiberationSans-35" d="M 3291 1434 
Q 3291 1103 3191 828 
Q 3091 553 2894 354 
Q 2697 156 2405 46 
Q 2113 -63 1728 -63 
Q 1381 -63 1123 18 
Q 866 100 687 242 
Q 509 384 404 575 
Q 300 766 256 984 
L 825 1050 
Q 859 925 921 808 
Q 984 691 1092 598 
Q 1200 506 1358 451 
Q 1516 397 1741 397 
Q 1959 397 2137 464 
Q 2316 531 2442 662 
Q 2569 794 2637 984 
Q 2706 1175 2706 1422 
Q 2706 1625 2640 1795 
Q 2575 1966 2453 2089 
Q 2331 2213 2154 2281 
Q 1978 2350 1753 2350 
Q 1613 2350 1494 2325 
Q 1375 2300 1273 2256 
Q 1172 2213 1089 2155 
Q 1006 2097 934 2034 
L 384 2034 
L 531 4403 
L 3034 4403 
L 3034 3925 
L 1044 3925 
L 959 2528 
Q 1109 2644 1334 2726 
Q 1559 2809 1869 2809 
Q 2197 2809 2459 2709 
Q 2722 2609 2906 2426 
Q 3091 2244 3191 1991 
Q 3291 1738 3291 1434 
z
" transform="scale(0.015625)"/>
        <path id="LiberationSans-30" d="M 3309 2203 
Q 3309 1569 3189 1136 
Q 3069 703 2861 436 
Q 2653 169 2372 53 
Q 2091 -63 1772 -63 
Q 1450 -63 1172 53 
Q 894 169 689 434 
Q 484 700 367 1133 
Q 250 1566 250 2203 
Q 250 2869 367 3305 
Q 484 3741 690 4000 
Q 897 4259 1178 4364 
Q 1459 4469 1791 4469 
Q 2106 4469 2382 4364 
Q 2659 4259 2865 4000 
Q 3072 3741 3190 3305 
Q 3309 2869 3309 2203 
z
M 2738 2203 
Q 2738 2728 2675 3076 
Q 2613 3425 2491 3633 
Q 2369 3841 2192 3927 
Q 2016 4013 1791 4013 
Q 1553 4013 1372 3925 
Q 1191 3838 1067 3630 
Q 944 3422 881 3073 
Q 819 2725 819 2203 
Q 819 1697 883 1350 
Q 947 1003 1070 792 
Q 1194 581 1372 489 
Q 1550 397 1778 397 
Q 2000 397 2178 489 
Q 2356 581 2479 792 
Q 2603 1003 2670 1350 
Q 2738 1697 2738 2203 
z
" transform="scale(0.015625)"/>
       </defs>
       <use xlink:href="#LiberationSans-35"/>
       <use xlink:href="#LiberationSans-30" x="55.615234"/>
      </g>
     </g>
    </g>
    <g id="xtick_2">
     <g id="line2d_3">
      <path d="M 100.114286 260.909299 
L 100.114286 88.146701 
" clip-path="url(#p0e23c05640)" style="fill: none; stroke: #cccccc; stroke-width: 0.8; stroke-linecap: round"/>
     </g>
     <g id="line2d_4"/>
     <g id="text_2">
      <!-- 55 -->
      <g style="fill: #262626" transform="translate(94.553348 271.656174) scale(0.1 -0.1)">
       <use xlink:href="#LiberationSans-35"/>
       <use xlink:href="#LiberationSans-35" x="55.615234"/>
      </g>
     </g>
    </g>
    <g id="xtick_3">
     <g id="line2d_5">
      <path d="M 135.250059 260.909299 
L 135.250059 88.146701 
" clip-path="url(#p0e23c05640)" style="fill: none; stroke: #cccccc; stroke-width: 0.8; stroke-linecap: round"/>
     </g>
     <g id="line2d_6"/>
     <g id="text_3">
      <!-- 60 -->
      <g style="fill: #262626" transform="translate(129.689122 271.656174) scale(0.1 -0.1)">
       <defs>
        <path id="LiberationSans-36" d="M 3278 1441 
Q 3278 1109 3186 832 
Q 3094 556 2914 357 
Q 2734 159 2468 48 
Q 2203 -63 1856 -63 
Q 1472 -63 1184 84 
Q 897 231 706 507 
Q 516 784 420 1186 
Q 325 1588 325 2100 
Q 325 2688 433 3131 
Q 541 3575 744 3872 
Q 947 4169 1239 4319 
Q 1531 4469 1900 4469 
Q 2125 4469 2322 4422 
Q 2519 4375 2680 4270 
Q 2841 4166 2962 3994 
Q 3084 3822 3156 3572 
L 2619 3475 
Q 2531 3759 2339 3886 
Q 2147 4013 1894 4013 
Q 1663 4013 1475 3903 
Q 1288 3794 1156 3576 
Q 1025 3359 954 3031 
Q 884 2703 884 2266 
Q 1038 2550 1316 2698 
Q 1594 2847 1953 2847 
Q 2253 2847 2497 2750 
Q 2741 2653 2914 2470 
Q 3088 2288 3183 2027 
Q 3278 1766 3278 1441 
z
M 2706 1416 
Q 2706 1644 2650 1828 
Q 2594 2013 2481 2142 
Q 2369 2272 2203 2342 
Q 2038 2413 1819 2413 
Q 1666 2413 1509 2367 
Q 1353 2322 1226 2220 
Q 1100 2119 1020 1953 
Q 941 1788 941 1550 
Q 941 1306 1003 1095 
Q 1066 884 1183 728 
Q 1300 572 1465 481 
Q 1631 391 1838 391 
Q 2041 391 2202 461 
Q 2363 531 2475 664 
Q 2588 797 2647 987 
Q 2706 1178 2706 1416 
z
" transform="scale(0.015625)"/>
       </defs>
       <use xlink:href="#LiberationSans-36"/>
       <use xlink:href="#LiberationSans-30" x="55.615234"/>
      </g>
     </g>
    </g>
    <g id="xtick_4">
     <g id="line2d_7">
      <path d="M 170.385832 260.909299 
L 170.385832 88.146701 
" clip-path="url(#p0e23c05640)" style="fill: none; stroke: #cccccc; stroke-width: 0.8; stroke-linecap: round"/>
     </g>
     <g id="line2d_8"/>
     <g id="text_4">
      <!-- 65 -->
      <g style="fill: #262626" transform="translate(164.824895 271.656174) scale(0.1 -0.1)">
       <use xlink:href="#LiberationSans-36"/>
       <use xlink:href="#LiberationSans-35" x="55.615234"/>
      </g>
     </g>
    </g>
    <g id="xtick_5">
     <g id="line2d_9">
      <path d="M 205.521606 260.909299 
L 205.521606 88.146701 
" clip-path="url(#p0e23c05640)" style="fill: none; stroke: #cccccc; stroke-width: 0.8; stroke-linecap: round"/>
     </g>
     <g id="line2d_10"/>
     <g id="text_5">
      <!-- 70 -->
      <g style="fill: #262626" transform="translate(199.960668 271.656174) scale(0.1 -0.1)">
       <defs>
        <path id="LiberationSans-37" d="M 3238 3947 
Q 2906 3441 2628 2973 
Q 2350 2506 2150 2032 
Q 1950 1559 1839 1061 
Q 1728 563 1728 0 
L 1141 0 
Q 1141 528 1266 1036 
Q 1391 1544 1603 2033 
Q 1816 2522 2097 2994 
Q 2378 3466 2694 3925 
L 328 3925 
L 328 4403 
L 3238 4403 
L 3238 3947 
z
" transform="scale(0.015625)"/>
       </defs>
       <use xlink:href="#LiberationSans-37"/>
       <use xlink:href="#LiberationSans-30" x="55.615234"/>
      </g>
     </g>
    </g>
    <g id="text_6">
     <!-- True Performance[%] -->
     <g style="fill: #262626" transform="translate(91.437074 284.978049) scale(0.1 -0.1)">
      <defs>
       <path id="LiberationSans-54" d="M 2250 3916 
L 2250 0 
L 1656 0 
L 1656 3916 
L 144 3916 
L 144 4403 
L 3763 4403 
L 3763 3916 
L 2250 3916 
z
" transform="scale(0.015625)"/>
       <path id="LiberationSans-72" d="M 444 0 
L 444 2594 
Q 444 2700 442 2811 
Q 441 2922 437 3025 
Q 434 3128 431 3218 
Q 428 3309 425 3381 
L 956 3381 
Q 959 3309 964 3217 
Q 969 3125 973 3028 
Q 978 2931 979 2842 
Q 981 2753 981 2691 
L 994 2691 
Q 1053 2884 1120 3026 
Q 1188 3169 1278 3261 
Q 1369 3353 1494 3398 
Q 1619 3444 1797 3444 
Q 1866 3444 1928 3433 
Q 1991 3422 2025 3413 
L 2025 2897 
Q 1969 2913 1894 2920 
Q 1819 2928 1725 2928 
Q 1531 2928 1395 2840 
Q 1259 2753 1173 2598 
Q 1088 2444 1047 2230 
Q 1006 2016 1006 1763 
L 1006 0 
L 444 0 
z
" transform="scale(0.015625)"/>
       <path id="LiberationSans-75" d="M 981 3381 
L 981 1238 
Q 981 991 1017 825 
Q 1053 659 1134 557 
Q 1216 456 1348 414 
Q 1481 372 1678 372 
Q 1878 372 2039 442 
Q 2200 513 2314 645 
Q 2428 778 2490 973 
Q 2553 1169 2553 1422 
L 2553 3381 
L 3116 3381 
L 3116 722 
Q 3116 616 3117 498 
Q 3119 381 3122 276 
Q 3125 172 3128 97 
Q 3131 22 3134 0 
L 2603 0 
Q 2600 16 2597 84 
Q 2594 153 2589 242 
Q 2584 331 2581 423 
Q 2578 516 2578 578 
L 2569 578 
Q 2488 431 2391 312 
Q 2294 194 2166 111 
Q 2038 28 1872 -17 
Q 1706 -63 1488 -63 
Q 1206 -63 1003 6 
Q 800 75 669 219 
Q 538 363 477 588 
Q 416 813 416 1128 
L 416 3381 
L 981 3381 
z
" transform="scale(0.015625)"/>
       <path id="LiberationSans-65" d="M 863 1572 
Q 863 1306 917 1082 
Q 972 859 1086 698 
Q 1200 538 1378 448 
Q 1556 359 1806 359 
Q 2172 359 2392 506 
Q 2613 653 2691 878 
L 3184 738 
Q 3131 597 3036 455 
Q 2941 313 2781 198 
Q 2622 84 2383 10 
Q 2144 -63 1806 -63 
Q 1056 -63 664 384 
Q 272 831 272 1713 
Q 272 2188 390 2517 
Q 509 2847 715 3053 
Q 922 3259 1197 3351 
Q 1472 3444 1784 3444 
Q 2209 3444 2495 3306 
Q 2781 3169 2954 2926 
Q 3128 2684 3201 2356 
Q 3275 2028 3275 1647 
L 3275 1572 
L 863 1572 
z
M 2694 2003 
Q 2647 2538 2422 2783 
Q 2197 3028 1775 3028 
Q 1634 3028 1479 2983 
Q 1325 2938 1194 2822 
Q 1063 2706 972 2507 
Q 881 2309 869 2003 
L 2694 2003 
z
" transform="scale(0.015625)"/>
       <path id="LiberationSans-20" transform="scale(0.015625)"/>
       <path id="LiberationSans-50" d="M 3931 3078 
Q 3931 2791 3836 2542 
Q 3741 2294 3552 2111 
Q 3363 1928 3078 1822 
Q 2794 1716 2416 1716 
L 1122 1716 
L 1122 0 
L 525 0 
L 525 4403 
L 2378 4403 
Q 2769 4403 3059 4308 
Q 3350 4213 3544 4039 
Q 3738 3866 3834 3620 
Q 3931 3375 3931 3078 
z
M 3331 3072 
Q 3331 3491 3075 3708 
Q 2819 3925 2306 3925 
L 1122 3925 
L 1122 2188 
L 2331 2188 
Q 2847 2188 3089 2416 
Q 3331 2644 3331 3072 
z
" transform="scale(0.015625)"/>
       <path id="LiberationSans-66" d="M 1128 2972 
L 1128 0 
L 566 0 
L 566 2972 
L 91 2972 
L 91 3381 
L 566 3381 
L 566 3763 
Q 566 3947 600 4105 
Q 634 4263 726 4380 
Q 819 4497 978 4564 
Q 1138 4631 1391 4631 
Q 1491 4631 1598 4622 
Q 1706 4613 1788 4594 
L 1788 4166 
Q 1734 4175 1664 4183 
Q 1594 4191 1538 4191 
Q 1413 4191 1333 4156 
Q 1253 4122 1208 4058 
Q 1163 3994 1145 3900 
Q 1128 3806 1128 3684 
L 1128 3381 
L 1788 3381 
L 1788 2972 
L 1128 2972 
z
" transform="scale(0.015625)"/>
       <path id="LiberationSans-6f" d="M 3291 1694 
Q 3291 806 2900 371 
Q 2509 -63 1766 -63 
Q 1413 -63 1134 43 
Q 856 150 664 369 
Q 472 588 370 917 
Q 269 1247 269 1694 
Q 269 3444 1784 3444 
Q 2178 3444 2464 3334 
Q 2750 3225 2933 3006 
Q 3116 2788 3203 2459 
Q 3291 2131 3291 1694 
z
M 2700 1694 
Q 2700 2088 2639 2344 
Q 2578 2600 2461 2753 
Q 2344 2906 2175 2967 
Q 2006 3028 1794 3028 
Q 1578 3028 1404 2964 
Q 1231 2900 1109 2745 
Q 988 2591 923 2334 
Q 859 2078 859 1694 
Q 859 1300 928 1042 
Q 997 784 1117 631 
Q 1238 478 1402 415 
Q 1566 353 1759 353 
Q 1975 353 2150 414 
Q 2325 475 2447 628 
Q 2569 781 2634 1040 
Q 2700 1300 2700 1694 
z
" transform="scale(0.015625)"/>
       <path id="LiberationSans-6d" d="M 2400 0 
L 2400 2144 
Q 2400 2391 2369 2556 
Q 2338 2722 2264 2823 
Q 2191 2925 2072 2967 
Q 1953 3009 1781 3009 
Q 1603 3009 1459 2939 
Q 1316 2869 1214 2736 
Q 1113 2603 1058 2408 
Q 1003 2213 1003 1959 
L 1003 0 
L 444 0 
L 444 2659 
Q 444 2766 442 2883 
Q 441 3000 437 3104 
Q 434 3209 431 3284 
Q 428 3359 425 3381 
L 956 3381 
Q 959 3366 962 3297 
Q 966 3228 970 3139 
Q 975 3050 978 2958 
Q 981 2866 981 2803 
L 991 2803 
Q 1066 2950 1153 3069 
Q 1241 3188 1358 3270 
Q 1475 3353 1626 3398 
Q 1778 3444 1978 3444 
Q 2363 3444 2586 3291 
Q 2809 3138 2897 2803 
L 2906 2803 
Q 2981 2950 3075 3069 
Q 3169 3188 3294 3270 
Q 3419 3353 3575 3398 
Q 3731 3444 3931 3444 
Q 4188 3444 4373 3375 
Q 4559 3306 4678 3162 
Q 4797 3019 4853 2792 
Q 4909 2566 4909 2253 
L 4909 0 
L 4353 0 
L 4353 2144 
Q 4353 2391 4322 2556 
Q 4291 2722 4217 2823 
Q 4144 2925 4025 2967 
Q 3906 3009 3734 3009 
Q 3556 3009 3412 2942 
Q 3269 2875 3167 2744 
Q 3066 2613 3011 2416 
Q 2956 2219 2956 1959 
L 2956 0 
L 2400 0 
z
" transform="scale(0.015625)"/>
       <path id="LiberationSans-61" d="M 1294 -63 
Q 784 -63 528 206 
Q 272 475 272 944 
Q 272 1278 398 1492 
Q 525 1706 729 1828 
Q 934 1950 1196 1997 
Q 1459 2044 1731 2050 
L 2491 2063 
L 2491 2247 
Q 2491 2456 2447 2603 
Q 2403 2750 2312 2840 
Q 2222 2931 2086 2973 
Q 1950 3016 1766 3016 
Q 1603 3016 1472 2992 
Q 1341 2969 1244 2908 
Q 1147 2847 1087 2742 
Q 1028 2638 1009 2478 
L 422 2531 
Q 453 2731 540 2898 
Q 628 3066 789 3187 
Q 950 3309 1192 3376 
Q 1434 3444 1778 3444 
Q 2416 3444 2737 3151 
Q 3059 2859 3059 2306 
L 3059 850 
Q 3059 600 3125 473 
Q 3191 347 3375 347 
Q 3422 347 3469 353 
Q 3516 359 3559 369 
L 3559 19 
Q 3453 -6 3348 -18 
Q 3244 -31 3125 -31 
Q 2966 -31 2852 11 
Q 2738 53 2666 139 
Q 2594 225 2556 351 
Q 2519 478 2509 647 
L 2491 647 
Q 2400 484 2292 353 
Q 2184 222 2040 130 
Q 1897 38 1714 -12 
Q 1531 -63 1294 -63 
z
M 1422 359 
Q 1691 359 1892 457 
Q 2094 556 2226 709 
Q 2359 863 2425 1044 
Q 2491 1225 2491 1391 
L 2491 1669 
L 1875 1656 
Q 1669 1653 1483 1626 
Q 1297 1600 1156 1522 
Q 1016 1444 933 1303 
Q 850 1163 850 934 
Q 850 659 998 509 
Q 1147 359 1422 359 
z
" transform="scale(0.015625)"/>
       <path id="LiberationSans-6e" d="M 2578 0 
L 2578 2144 
Q 2578 2391 2542 2556 
Q 2506 2722 2425 2823 
Q 2344 2925 2211 2967 
Q 2078 3009 1881 3009 
Q 1681 3009 1520 2939 
Q 1359 2869 1245 2736 
Q 1131 2603 1068 2408 
Q 1006 2213 1006 1959 
L 1006 0 
L 444 0 
L 444 2659 
Q 444 2766 442 2883 
Q 441 3000 437 3104 
Q 434 3209 431 3284 
Q 428 3359 425 3381 
L 956 3381 
Q 959 3366 962 3297 
Q 966 3228 970 3139 
Q 975 3050 978 2958 
Q 981 2866 981 2803 
L 991 2803 
Q 1072 2950 1169 3069 
Q 1266 3188 1394 3270 
Q 1522 3353 1687 3398 
Q 1853 3444 2072 3444 
Q 2353 3444 2556 3375 
Q 2759 3306 2890 3162 
Q 3022 3019 3083 2792 
Q 3144 2566 3144 2253 
L 3144 0 
L 2578 0 
z
" transform="scale(0.015625)"/>
       <path id="LiberationSans-63" d="M 859 1706 
Q 859 1416 901 1172 
Q 944 928 1044 751 
Q 1144 575 1308 478 
Q 1472 381 1713 381 
Q 2013 381 2214 543 
Q 2416 706 2463 1044 
L 3031 1006 
Q 3003 797 2909 603 
Q 2816 409 2655 262 
Q 2494 116 2262 26 
Q 2031 -63 1728 -63 
Q 1331 -63 1053 71 
Q 775 206 601 442 
Q 428 678 350 998 
Q 272 1319 272 1694 
Q 272 2034 328 2295 
Q 384 2556 486 2751 
Q 588 2947 725 3080 
Q 863 3213 1023 3292 
Q 1184 3372 1362 3408 
Q 1541 3444 1722 3444 
Q 2006 3444 2228 3366 
Q 2450 3288 2611 3152 
Q 2772 3016 2872 2831 
Q 2972 2647 3013 2434 
L 2434 2391 
Q 2391 2672 2212 2837 
Q 2034 3003 1706 3003 
Q 1466 3003 1305 2923 
Q 1144 2844 1044 2683 
Q 944 2522 901 2278 
Q 859 2034 859 1706 
z
" transform="scale(0.015625)"/>
       <path id="LiberationSans-5b" d="M 456 -1328 
L 456 4638 
L 1728 4638 
L 1728 4234 
L 1000 4234 
L 1000 -925 
L 1728 -925 
L 1728 -1328 
L 456 -1328 
z
" transform="scale(0.015625)"/>
       <path id="LiberationSans-25" d="M 5463 1356 
Q 5463 966 5383 698 
Q 5303 431 5167 267 
Q 5031 103 4850 32 
Q 4669 -38 4463 -38 
Q 4256 -38 4076 32 
Q 3897 103 3764 265 
Q 3631 428 3554 695 
Q 3478 963 3478 1356 
Q 3478 1772 3553 2044 
Q 3628 2316 3762 2477 
Q 3897 2638 4080 2702 
Q 4263 2766 4475 2766 
Q 4681 2766 4861 2702 
Q 5041 2638 5173 2477 
Q 5306 2316 5384 2044 
Q 5463 1772 5463 1356 
z
M 1647 0 
L 1163 0 
L 4044 4403 
L 4534 4403 
L 1647 0 
z
M 1231 4441 
Q 1431 4441 1609 4377 
Q 1788 4313 1922 4153 
Q 2056 3994 2132 3725 
Q 2209 3456 2209 3047 
Q 2209 2653 2131 2384 
Q 2053 2116 1920 1948 
Q 1788 1781 1606 1709 
Q 1425 1638 1219 1638 
Q 1009 1638 828 1709 
Q 647 1781 514 1947 
Q 381 2113 304 2381 
Q 228 2650 228 3047 
Q 228 3456 304 3725 
Q 381 3994 515 4153 
Q 650 4313 834 4377 
Q 1019 4441 1231 4441 
z
M 5000 1356 
Q 5000 1666 4965 1870 
Q 4931 2075 4864 2197 
Q 4797 2319 4698 2369 
Q 4600 2419 4475 2419 
Q 4344 2419 4244 2367 
Q 4144 2316 4075 2194 
Q 4006 2072 3972 1867 
Q 3938 1663 3938 1356 
Q 3938 1059 3973 859 
Q 4009 659 4076 536 
Q 4144 413 4242 359 
Q 4341 306 4469 306 
Q 4591 306 4689 359 
Q 4788 413 4856 536 
Q 4925 659 4962 859 
Q 5000 1059 5000 1356 
z
M 1750 3047 
Q 1750 3353 1715 3556 
Q 1681 3759 1615 3881 
Q 1550 4003 1453 4053 
Q 1356 4103 1231 4103 
Q 1097 4103 995 4051 
Q 894 4000 825 3878 
Q 756 3756 722 3553 
Q 688 3350 688 3047 
Q 688 2750 723 2547 
Q 759 2344 826 2220 
Q 894 2097 994 2044 
Q 1094 1991 1225 1991 
Q 1344 1991 1441 2044 
Q 1538 2097 1606 2220 
Q 1675 2344 1712 2547 
Q 1750 2750 1750 3047 
z
" transform="scale(0.015625)"/>
       <path id="LiberationSans-5d" d="M 50 -1328 
L 50 -925 
L 778 -925 
L 778 4234 
L 50 4234 
L 50 4638 
L 1322 4638 
L 1322 -1328 
L 50 -1328 
z
" transform="scale(0.015625)"/>
      </defs>
      <use xlink:href="#LiberationSans-54"/>
      <use xlink:href="#LiberationSans-72" x="57.333984"/>
      <use xlink:href="#LiberationSans-75" x="90.634766"/>
      <use xlink:href="#LiberationSans-65" x="146.25"/>
      <use xlink:href="#LiberationSans-20" x="201.865234"/>
      <use xlink:href="#LiberationSans-50" x="229.648438"/>
      <use xlink:href="#LiberationSans-65" x="296.347656"/>
      <use xlink:href="#LiberationSans-72" x="351.962891"/>
      <use xlink:href="#LiberationSans-66" x="385.263672"/>
      <use xlink:href="#LiberationSans-6f" x="413.046875"/>
      <use xlink:href="#LiberationSans-72" x="468.662109"/>
      <use xlink:href="#LiberationSans-6d" x="501.962891"/>
      <use xlink:href="#LiberationSans-61" x="585.263672"/>
      <use xlink:href="#LiberationSans-6e" x="640.878906"/>
      <use xlink:href="#LiberationSans-63" x="696.494141"/>
      <use xlink:href="#LiberationSans-65" x="746.494141"/>
      <use xlink:href="#LiberationSans-5b" x="802.109375"/>
      <use xlink:href="#LiberationSans-25" x="829.892578"/>
      <use xlink:href="#LiberationSans-5d" x="918.808594"/>
     </g>
    </g>
   </g>
   <g id="matplotlib.axis_2">
    <g id="ytick_1">
     <g id="line2d_11">
      <path d="M 57.6 243.569795 
L 219.927273 243.569795 
" clip-path="url(#p0e23c05640)" style="fill: none; stroke: #cccccc; stroke-width: 0.8; stroke-linecap: round"/>
     </g>
     <g id="line2d_12"/>
     <g id="text_7">
      <!-- 50 -->
      <g style="fill: #262626" transform="translate(42.978125 247.193232) scale(0.1 -0.1)">
       <use xlink:href="#LiberationSans-35"/>
       <use xlink:href="#LiberationSans-30" x="55.615234"/>
      </g>
     </g>
    </g>
    <g id="ytick_2">
     <g id="line2d_13">
      <path d="M 57.6 208.434021 
L 219.927273 208.434021 
" clip-path="url(#p0e23c05640)" style="fill: none; stroke: #cccccc; stroke-width: 0.8; stroke-linecap: round"/>
     </g>
     <g id="line2d_14"/>
     <g id="text_8">
      <!-- 55 -->
      <g style="fill: #262626" transform="translate(42.978125 212.057459) scale(0.1 -0.1)">
       <use xlink:href="#LiberationSans-35"/>
       <use xlink:href="#LiberationSans-35" x="55.615234"/>
      </g>
     </g>
    </g>
    <g id="ytick_3">
     <g id="line2d_15">
      <path d="M 57.6 173.298248 
L 219.927273 173.298248 
" clip-path="url(#p0e23c05640)" style="fill: none; stroke: #cccccc; stroke-width: 0.8; stroke-linecap: round"/>
     </g>
     <g id="line2d_16"/>
     <g id="text_9">
      <!-- 60 -->
      <g style="fill: #262626" transform="translate(42.978125 176.921685) scale(0.1 -0.1)">
       <use xlink:href="#LiberationSans-36"/>
       <use xlink:href="#LiberationSans-30" x="55.615234"/>
      </g>
     </g>
    </g>
    <g id="ytick_4">
     <g id="line2d_17">
      <path d="M 57.6 138.162475 
L 219.927273 138.162475 
" clip-path="url(#p0e23c05640)" style="fill: none; stroke: #cccccc; stroke-width: 0.8; stroke-linecap: round"/>
     </g>
     <g id="line2d_18"/>
     <g id="text_10">
      <!-- 65 -->
      <g style="fill: #262626" transform="translate(42.978125 141.785912) scale(0.1 -0.1)">
       <use xlink:href="#LiberationSans-36"/>
       <use xlink:href="#LiberationSans-35" x="55.615234"/>
      </g>
     </g>
    </g>
    <g id="ytick_5">
     <g id="line2d_19">
      <path d="M 57.6 103.026701 
L 219.927273 103.026701 
" clip-path="url(#p0e23c05640)" style="fill: none; stroke: #cccccc; stroke-width: 0.8; stroke-linecap: round"/>
     </g>
     <g id="line2d_20"/>
     <g id="text_11">
      <!-- 70 -->
      <g style="fill: #262626" transform="translate(42.978125 106.650139) scale(0.1 -0.1)">
       <use xlink:href="#LiberationSans-37"/>
       <use xlink:href="#LiberationSans-30" x="55.615234"/>
      </g>
     </g>
    </g>
    <g id="text_12">
     <!-- Predicted Performance[%] -->
     <g style="fill: #262626" transform="translate(36.903125 232.88425) rotate(-90) scale(0.1 -0.1)">
      <defs>
       <path id="LiberationSans-64" d="M 2566 544 
Q 2409 219 2151 78 
Q 1894 -63 1513 -63 
Q 872 -63 570 368 
Q 269 800 269 1675 
Q 269 3444 1513 3444 
Q 1897 3444 2153 3303 
Q 2409 3163 2566 2856 
L 2572 2856 
Q 2572 2888 2570 2955 
Q 2569 3022 2567 3095 
Q 2566 3169 2566 3234 
Q 2566 3300 2566 3328 
L 2566 4638 
L 3128 4638 
L 3128 697 
Q 3128 575 3129 462 
Q 3131 350 3134 256 
Q 3138 163 3141 95 
Q 3144 28 3147 0 
L 2609 0 
Q 2603 31 2598 89 
Q 2594 147 2589 222 
Q 2584 297 2581 380 
Q 2578 463 2578 544 
L 2566 544 
z
M 859 1694 
Q 859 1344 903 1094 
Q 947 844 1044 683 
Q 1141 522 1291 447 
Q 1441 372 1656 372 
Q 1878 372 2048 444 
Q 2219 516 2333 677 
Q 2447 838 2506 1097 
Q 2566 1356 2566 1731 
Q 2566 2091 2506 2339 
Q 2447 2588 2331 2741 
Q 2216 2894 2048 2961 
Q 1881 3028 1663 3028 
Q 1456 3028 1306 2956 
Q 1156 2884 1056 2725 
Q 956 2566 907 2311 
Q 859 2056 859 1694 
z
" transform="scale(0.015625)"/>
       <path id="LiberationSans-69" d="M 428 4100 
L 428 4638 
L 991 4638 
L 991 4100 
L 428 4100 
z
M 428 0 
L 428 3381 
L 991 3381 
L 991 0 
L 428 0 
z
" transform="scale(0.015625)"/>
       <path id="LiberationSans-74" d="M 1731 25 
Q 1603 -9 1470 -29 
Q 1338 -50 1163 -50 
Q 488 -50 488 716 
L 488 2972 
L 97 2972 
L 97 3381 
L 509 3381 
L 675 4138 
L 1050 4138 
L 1050 3381 
L 1675 3381 
L 1675 2972 
L 1050 2972 
L 1050 838 
Q 1050 594 1129 495 
Q 1209 397 1406 397 
Q 1488 397 1564 409 
Q 1641 422 1731 441 
L 1731 25 
z
" transform="scale(0.015625)"/>
      </defs>
      <use xlink:href="#LiberationSans-50"/>
      <use xlink:href="#LiberationSans-72" x="66.699219"/>
      <use xlink:href="#LiberationSans-65" x="100"/>
      <use xlink:href="#LiberationSans-64" x="155.615234"/>
      <use xlink:href="#LiberationSans-69" x="211.230469"/>
      <use xlink:href="#LiberationSans-63" x="233.447266"/>
      <use xlink:href="#LiberationSans-74" x="283.447266"/>
      <use xlink:href="#LiberationSans-65" x="311.230469"/>
      <use xlink:href="#LiberationSans-64" x="366.845703"/>
      <use xlink:href="#LiberationSans-20" x="422.460938"/>
      <use xlink:href="#LiberationSans-50" x="450.244141"/>
      <use xlink:href="#LiberationSans-65" x="516.943359"/>
      <use xlink:href="#LiberationSans-72" x="572.558594"/>
      <use xlink:href="#LiberationSans-66" x="605.859375"/>
      <use xlink:href="#LiberationSans-6f" x="633.642578"/>
      <use xlink:href="#LiberationSans-72" x="689.257812"/>
      <use xlink:href="#LiberationSans-6d" x="722.558594"/>
      <use xlink:href="#LiberationSans-61" x="805.859375"/>
      <use xlink:href="#LiberationSans-6e" x="861.474609"/>
      <use xlink:href="#LiberationSans-63" x="917.089844"/>
      <use xlink:href="#LiberationSans-65" x="967.089844"/>
      <use xlink:href="#LiberationSans-5b" x="1022.705078"/>
      <use xlink:href="#LiberationSans-25" x="1050.488281"/>
      <use xlink:href="#LiberationSans-5d" x="1139.404297"/>
     </g>
    </g>
   </g>
   <g id="PathCollection_1">
    <defs>
     <path id="m7bb842d34e" d="M 0 3 
C 0.795609 3 1.55874 2.683901 2.12132 2.12132 
C 2.683901 1.55874 3 0.795609 3 0 
C 3 -0.795609 2.683901 -1.55874 2.12132 -2.12132 
C 1.55874 -2.683901 0.795609 -3 0 -3 
C -0.795609 -3 -1.55874 -2.683901 -2.12132 -2.12132 
C -2.683901 -1.55874 -3 -0.795609 -3 0 
C -3 0.795609 -2.683901 1.55874 -2.12132 2.12132 
C -1.55874 2.683901 -0.795609 3 0 3 
z
" style="stroke: #00bfbf; stroke-opacity: 0.5"/>
    </defs>
    <g clip-path="url(#p0e23c05640)">
     <use xlink:href="#m7bb842d34e" x="175.047745" y="139.989535" style="fill: #00bfbf; fill-opacity: 0.5; stroke: #00bfbf; stroke-opacity: 0.5"/>
     <use xlink:href="#m7bb842d34e" x="120.60901" y="187.282286" style="fill: #00bfbf; fill-opacity: 0.5; stroke: #00bfbf; stroke-opacity: 0.5"/>
     <use xlink:href="#m7bb842d34e" x="139.873478" y="162.968331" style="fill: #00bfbf; fill-opacity: 0.5; stroke: #00bfbf; stroke-opacity: 0.5"/>
     <use xlink:href="#m7bb842d34e" x="161.758064" y="142.378767" style="fill: #00bfbf; fill-opacity: 0.5; stroke: #00bfbf; stroke-opacity: 0.5"/>
     <use xlink:href="#m7bb842d34e" x="143.848287" y="153.481672" style="fill: #00bfbf; fill-opacity: 0.5; stroke: #00bfbf; stroke-opacity: 0.5"/>
     <use xlink:href="#m7bb842d34e" x="152.713829" y="145.540987" style="fill: #00bfbf; fill-opacity: 0.5; stroke: #00bfbf; stroke-opacity: 0.5"/>
     <use xlink:href="#m7bb842d34e" x="174.699797" y="138.584104" style="fill: #00bfbf; fill-opacity: 0.5; stroke: #00bfbf; stroke-opacity: 0.5"/>
     <use xlink:href="#m7bb842d34e" x="90.97387" y="224.315391" style="fill: #00bfbf; fill-opacity: 0.5; stroke: #00bfbf; stroke-opacity: 0.5"/>
     <use xlink:href="#m7bb842d34e" x="162.456426" y="145.400444" style="fill: #00bfbf; fill-opacity: 0.5; stroke: #00bfbf; stroke-opacity: 0.5"/>
     <use xlink:href="#m7bb842d34e" x="191.060803" y="119.399972" style="fill: #00bfbf; fill-opacity: 0.5; stroke: #00bfbf; stroke-opacity: 0.5"/>
     <use xlink:href="#m7bb842d34e" x="146.122521" y="152.708685" style="fill: #00bfbf; fill-opacity: 0.5; stroke: #00bfbf; stroke-opacity: 0.5"/>
     <use xlink:href="#m7bb842d34e" x="182.998383" y="123.264907" style="fill: #00bfbf; fill-opacity: 0.5; stroke: #00bfbf; stroke-opacity: 0.5"/>
     <use xlink:href="#m7bb842d34e" x="93.457436" y="214.547646" style="fill: #00bfbf; fill-opacity: 0.5; stroke: #00bfbf; stroke-opacity: 0.5"/>
     <use xlink:href="#m7bb842d34e" x="155.678571" y="143.432841" style="fill: #00bfbf; fill-opacity: 0.5; stroke: #00bfbf; stroke-opacity: 0.5"/>
     <use xlink:href="#m7bb842d34e" x="183.011947" y="129.589346" style="fill: #00bfbf; fill-opacity: 0.5; stroke: #00bfbf; stroke-opacity: 0.5"/>
     <use xlink:href="#m7bb842d34e" x="165.202748" y="139.216548" style="fill: #00bfbf; fill-opacity: 0.5; stroke: #00bfbf; stroke-opacity: 0.5"/>
     <use xlink:href="#m7bb842d34e" x="154.449307" y="145.822073" style="fill: #00bfbf; fill-opacity: 0.5; stroke: #00bfbf; stroke-opacity: 0.5"/>
     <use xlink:href="#m7bb842d34e" x="190.863561" y="118.064812" style="fill: #00bfbf; fill-opacity: 0.5; stroke: #00bfbf; stroke-opacity: 0.5"/>
     <use xlink:href="#m7bb842d34e" x="177.246036" y="120.032416" style="fill: #00bfbf; fill-opacity: 0.5; stroke: #00bfbf; stroke-opacity: 0.5"/>
     <use xlink:href="#m7bb842d34e" x="194.836119" y="117.994541" style="fill: #00bfbf; fill-opacity: 0.5; stroke: #00bfbf; stroke-opacity: 0.5"/>
     <use xlink:href="#m7bb842d34e" x="154.868748" y="153.622215" style="fill: #00bfbf; fill-opacity: 0.5; stroke: #00bfbf; stroke-opacity: 0.5"/>
     <use xlink:href="#m7bb842d34e" x="180.238067" y="133.384009" style="fill: #00bfbf; fill-opacity: 0.5; stroke: #00bfbf; stroke-opacity: 0.5"/>
     <use xlink:href="#m7bb842d34e" x="153.165572" y="158.611495" style="fill: #00bfbf; fill-opacity: 0.5; stroke: #00bfbf; stroke-opacity: 0.5"/>
     <use xlink:href="#m7bb842d34e" x="199.337193" y="106.61055" style="fill: #00bfbf; fill-opacity: 0.5; stroke: #00bfbf; stroke-opacity: 0.5"/>
     <use xlink:href="#m7bb842d34e" x="186.094798" y="114.480963" style="fill: #00bfbf; fill-opacity: 0.5; stroke: #00bfbf; stroke-opacity: 0.5"/>
     <use xlink:href="#m7bb842d34e" x="186.094798" y="118.626985" style="fill: #00bfbf; fill-opacity: 0.5; stroke: #00bfbf; stroke-opacity: 0.5"/>
     <use xlink:href="#m7bb842d34e" x="170.647035" y="134.156996" style="fill: #00bfbf; fill-opacity: 0.5; stroke: #00bfbf; stroke-opacity: 0.5"/>
     <use xlink:href="#m7bb842d34e" x="170.595513" y="128.324458" style="fill: #00bfbf; fill-opacity: 0.5; stroke: #00bfbf; stroke-opacity: 0.5"/>
     <use xlink:href="#m7bb842d34e" x="165.890763" y="142.02741" style="fill: #00bfbf; fill-opacity: 0.5; stroke: #00bfbf; stroke-opacity: 0.5"/>
     <use xlink:href="#m7bb842d34e" x="122.504656" y="189.039074" style="fill: #00bfbf; fill-opacity: 0.5; stroke: #00bfbf; stroke-opacity: 0.5"/>
     <use xlink:href="#m7bb842d34e" x="179.624574" y="128.324458" style="fill: #00bfbf; fill-opacity: 0.5; stroke: #00bfbf; stroke-opacity: 0.5"/>
     <use xlink:href="#m7bb842d34e" x="167.902642" y="138.654375" style="fill: #00bfbf; fill-opacity: 0.5; stroke: #00bfbf; stroke-opacity: 0.5"/>
     <use xlink:href="#m7bb842d34e" x="76.553813" y="253.056453" style="fill: #00bfbf; fill-opacity: 0.5; stroke: #00bfbf; stroke-opacity: 0.5"/>
     <use xlink:href="#m7bb842d34e" x="156.240274" y="163.881861" style="fill: #00bfbf; fill-opacity: 0.5; stroke: #00bfbf; stroke-opacity: 0.5"/>
     <use xlink:href="#m7bb842d34e" x="171.738433" y="132.329936" style="fill: #00bfbf; fill-opacity: 0.5; stroke: #00bfbf; stroke-opacity: 0.5"/>
     <use xlink:href="#m7bb842d34e" x="160.373912" y="151.654612" style="fill: #00bfbf; fill-opacity: 0.5; stroke: #00bfbf; stroke-opacity: 0.5"/>
     <use xlink:href="#m7bb842d34e" x="167.766036" y="144.486914" style="fill: #00bfbf; fill-opacity: 0.5; stroke: #00bfbf; stroke-opacity: 0.5"/>
     <use xlink:href="#m7bb842d34e" x="167.513251" y="138.092203" style="fill: #00bfbf; fill-opacity: 0.5; stroke: #00bfbf; stroke-opacity: 0.5"/>
     <use xlink:href="#m7bb842d34e" x="186.094798" y="115.816123" style="fill: #00bfbf; fill-opacity: 0.5; stroke: #00bfbf; stroke-opacity: 0.5"/>
     <use xlink:href="#m7bb842d34e" x="201.729134" y="102.323986" style="fill: #00bfbf; fill-opacity: 0.5; stroke: #00bfbf; stroke-opacity: 0.5"/>
     <use xlink:href="#m7bb842d34e" x="180.565803" y="128.88663" style="fill: #00bfbf; fill-opacity: 0.5; stroke: #00bfbf; stroke-opacity: 0.5"/>
     <use xlink:href="#m7bb842d34e" x="179.617015" y="124.108165" style="fill: #00bfbf; fill-opacity: 0.5; stroke: #00bfbf; stroke-opacity: 0.5"/>
     <use xlink:href="#m7bb842d34e" x="157.546741" y="148.492392" style="fill: #00bfbf; fill-opacity: 0.5; stroke: #00bfbf; stroke-opacity: 0.5"/>
     <use xlink:href="#m7bb842d34e" x="145.316183" y="156.362805" style="fill: #00bfbf; fill-opacity: 0.5; stroke: #00bfbf; stroke-opacity: 0.5"/>
     <use xlink:href="#m7bb842d34e" x="154.21207" y="136.265143" style="fill: #00bfbf; fill-opacity: 0.5; stroke: #00bfbf; stroke-opacity: 0.5"/>
     <use xlink:href="#m7bb842d34e" x="146.019129" y="154.957374" style="fill: #00bfbf; fill-opacity: 0.5; stroke: #00bfbf; stroke-opacity: 0.5"/>
     <use xlink:href="#m7bb842d34e" x="155.931865" y="146.103159" style="fill: #00bfbf; fill-opacity: 0.5; stroke: #00bfbf; stroke-opacity: 0.5"/>
     <use xlink:href="#m7bb842d34e" x="178.104165" y="126.356855" style="fill: #00bfbf; fill-opacity: 0.5; stroke: #00bfbf; stroke-opacity: 0.5"/>
     <use xlink:href="#m7bb842d34e" x="105.883466" y="198.596005" style="fill: #00bfbf; fill-opacity: 0.5; stroke: #00bfbf; stroke-opacity: 0.5"/>
     <use xlink:href="#m7bb842d34e" x="188.600666" y="116.729653" style="fill: #00bfbf; fill-opacity: 0.5; stroke: #00bfbf; stroke-opacity: 0.5"/>
    </g>
   </g>
   <g id="line2d_21">
    <path d="M 64.978512 243.569795 
L 72.005667 236.54264 
L 79.032822 229.515485 
L 86.059976 222.488331 
L 93.087131 215.461176 
L 100.114286 208.434021 
L 107.14144 201.406867 
L 114.168595 194.379712 
L 121.19575 187.352557 
L 128.222904 180.325403 
L 135.250059 173.298248 
L 142.277214 166.271093 
L 149.304368 159.243939 
L 156.331523 152.216784 
L 163.358678 145.189629 
L 170.385832 138.162475 
L 177.412987 131.13532 
L 184.440142 124.108165 
L 191.467296 117.081011 
L 198.494451 110.053856 
L 205.521606 103.026701 
L 212.54876 95.999547 
" clip-path="url(#p0e23c05640)" style="fill: none; stroke-dasharray: 5.55,2.4; stroke-dashoffset: 0; stroke: #ff0000; stroke-width: 1.5"/>
   </g>
   <g id="patch_3">
    <path d="M 57.6 260.909299 
L 57.6 88.146701 
" style="fill: none; stroke: #cccccc; stroke-linejoin: miter; stroke-linecap: square"/>
   </g>
   <g id="patch_4">
    <path d="M 219.927273 260.909299 
L 219.927273 88.146701 
" style="fill: none; stroke: #cccccc; stroke-linejoin: miter; stroke-linecap: square"/>
   </g>
   <g id="patch_5">
    <path d="M 57.6 260.909299 
L 219.927273 260.909299 
" style="fill: none; stroke: #cccccc; stroke-linejoin: miter; stroke-linecap: square"/>
   </g>
   <g id="patch_6">
    <path d="M 57.6 88.146701 
L 219.927273 88.146701 
" style="fill: none; stroke: #cccccc; stroke-linejoin: miter; stroke-linecap: square"/>
   </g>
   <g id="text_13">
    <g id="patch_7">
     <path d="M 60.978512 131.428165 
L 172.586012 131.428165 
L 172.586012 91.279165 
L 60.978512 91.279165 
z
" style="fill: #ff0000; opacity: 0.2; stroke: #000000; stroke-linejoin: miter"/>
    </g>
    <!-- $R^2 = 0.938$ -->
    <g style="fill: #262626" transform="translate(64.978512 106.874165) scale(0.16 -0.16)">
     <defs>
      <path id="DejaVuSans-Oblique-52" d="M 1613 4147 
L 1294 2491 
L 2106 2491 
Q 2584 2491 2879 2755 
Q 3175 3019 3175 3444 
Q 3175 3784 2976 3965 
Q 2778 4147 2406 4147 
L 1613 4147 
z
M 2772 2241 
Q 2972 2194 3105 2009 
Q 3238 1825 3413 1275 
L 3809 0 
L 3144 0 
L 2778 1197 
Q 2638 1659 2453 1815 
Q 2269 1972 1888 1972 
L 1191 1972 
L 806 0 
L 172 0 
L 1081 4666 
L 2503 4666 
Q 3150 4666 3495 4373 
Q 3841 4081 3841 3531 
Q 3841 3044 3547 2687 
Q 3253 2331 2772 2241 
z
" transform="scale(0.015625)"/>
      <path id="DejaVuSans-32" d="M 1228 531 
L 3431 531 
L 3431 0 
L 469 0 
L 469 531 
Q 828 903 1448 1529 
Q 2069 2156 2228 2338 
Q 2531 2678 2651 2914 
Q 2772 3150 2772 3378 
Q 2772 3750 2511 3984 
Q 2250 4219 1831 4219 
Q 1534 4219 1204 4116 
Q 875 4013 500 3803 
L 500 4441 
Q 881 4594 1212 4672 
Q 1544 4750 1819 4750 
Q 2544 4750 2975 4387 
Q 3406 4025 3406 3419 
Q 3406 3131 3298 2873 
Q 3191 2616 2906 2266 
Q 2828 2175 2409 1742 
Q 1991 1309 1228 531 
z
" transform="scale(0.015625)"/>
      <path id="DejaVuSans-3d" d="M 678 2906 
L 4684 2906 
L 4684 2381 
L 678 2381 
L 678 2906 
z
M 678 1631 
L 4684 1631 
L 4684 1100 
L 678 1100 
L 678 1631 
z
" transform="scale(0.015625)"/>
      <path id="DejaVuSans-30" d="M 2034 4250 
Q 1547 4250 1301 3770 
Q 1056 3291 1056 2328 
Q 1056 1369 1301 889 
Q 1547 409 2034 409 
Q 2525 409 2770 889 
Q 3016 1369 3016 2328 
Q 3016 3291 2770 3770 
Q 2525 4250 2034 4250 
z
M 2034 4750 
Q 2819 4750 3233 4129 
Q 3647 3509 3647 2328 
Q 3647 1150 3233 529 
Q 2819 -91 2034 -91 
Q 1250 -91 836 529 
Q 422 1150 422 2328 
Q 422 3509 836 4129 
Q 1250 4750 2034 4750 
z
" transform="scale(0.015625)"/>
      <path id="DejaVuSans-2e" d="M 684 794 
L 1344 794 
L 1344 0 
L 684 0 
L 684 794 
z
" transform="scale(0.015625)"/>
      <path id="DejaVuSans-39" d="M 703 97 
L 703 672 
Q 941 559 1184 500 
Q 1428 441 1663 441 
Q 2288 441 2617 861 
Q 2947 1281 2994 2138 
Q 2813 1869 2534 1725 
Q 2256 1581 1919 1581 
Q 1219 1581 811 2004 
Q 403 2428 403 3163 
Q 403 3881 828 4315 
Q 1253 4750 1959 4750 
Q 2769 4750 3195 4129 
Q 3622 3509 3622 2328 
Q 3622 1225 3098 567 
Q 2575 -91 1691 -91 
Q 1453 -91 1209 -44 
Q 966 3 703 97 
z
M 1959 2075 
Q 2384 2075 2632 2365 
Q 2881 2656 2881 3163 
Q 2881 3666 2632 3958 
Q 2384 4250 1959 4250 
Q 1534 4250 1286 3958 
Q 1038 3666 1038 3163 
Q 1038 2656 1286 2365 
Q 1534 2075 1959 2075 
z
" transform="scale(0.015625)"/>
      <path id="DejaVuSans-33" d="M 2597 2516 
Q 3050 2419 3304 2112 
Q 3559 1806 3559 1356 
Q 3559 666 3084 287 
Q 2609 -91 1734 -91 
Q 1441 -91 1130 -33 
Q 819 25 488 141 
L 488 750 
Q 750 597 1062 519 
Q 1375 441 1716 441 
Q 2309 441 2620 675 
Q 2931 909 2931 1356 
Q 2931 1769 2642 2001 
Q 2353 2234 1838 2234 
L 1294 2234 
L 1294 2753 
L 1863 2753 
Q 2328 2753 2575 2939 
Q 2822 3125 2822 3475 
Q 2822 3834 2567 4026 
Q 2313 4219 1838 4219 
Q 1578 4219 1281 4162 
Q 984 4106 628 3988 
L 628 4550 
Q 988 4650 1302 4700 
Q 1616 4750 1894 4750 
Q 2613 4750 3031 4423 
Q 3450 4097 3450 3541 
Q 3450 3153 3228 2886 
Q 3006 2619 2597 2516 
z
" transform="scale(0.015625)"/>
      <path id="DejaVuSans-38" d="M 2034 2216 
Q 1584 2216 1326 1975 
Q 1069 1734 1069 1313 
Q 1069 891 1326 650 
Q 1584 409 2034 409 
Q 2484 409 2743 651 
Q 3003 894 3003 1313 
Q 3003 1734 2745 1975 
Q 2488 2216 2034 2216 
z
M 1403 2484 
Q 997 2584 770 2862 
Q 544 3141 544 3541 
Q 544 4100 942 4425 
Q 1341 4750 2034 4750 
Q 2731 4750 3128 4425 
Q 3525 4100 3525 3541 
Q 3525 3141 3298 2862 
Q 3072 2584 2669 2484 
Q 3125 2378 3379 2068 
Q 3634 1759 3634 1313 
Q 3634 634 3220 271 
Q 2806 -91 2034 -91 
Q 1263 -91 848 271 
Q 434 634 434 1313 
Q 434 1759 690 2068 
Q 947 2378 1403 2484 
z
M 1172 3481 
Q 1172 3119 1398 2916 
Q 1625 2713 2034 2713 
Q 2441 2713 2670 2916 
Q 2900 3119 2900 3481 
Q 2900 3844 2670 4047 
Q 2441 4250 2034 4250 
Q 1625 4250 1398 4047 
Q 1172 3844 1172 3481 
z
" transform="scale(0.015625)"/>
     </defs>
     <use xlink:href="#DejaVuSans-Oblique-52" transform="translate(0 0.765625)"/>
     <use xlink:href="#DejaVuSans-32" transform="translate(76.499193 39.046875) scale(0.7)"/>
     <use xlink:href="#DejaVuSans-3d" transform="translate(143.252122 0.765625)"/>
     <use xlink:href="#DejaVuSans-30" transform="translate(246.523607 0.765625)"/>
     <use xlink:href="#DejaVuSans-2e" transform="translate(310.146654 0.765625)"/>
     <use xlink:href="#DejaVuSans-39" transform="translate(341.933763 0.765625)"/>
     <use xlink:href="#DejaVuSans-33" transform="translate(405.55681 0.765625)"/>
     <use xlink:href="#DejaVuSans-38" transform="translate(469.179857 0.765625)"/>
    </g>
    <!-- SRCC = 0.949 -->
    <g style="fill: #262626" transform="translate(64.978512 124.108165) scale(0.16 -0.16)">
     <defs>
      <path id="LiberationSans-53" d="M 3975 1216 
Q 3975 938 3867 703 
Q 3759 469 3534 298 
Q 3309 128 2967 32 
Q 2625 -63 2156 -63 
Q 1334 -63 875 225 
Q 416 513 291 1056 
L 869 1172 
Q 913 1000 1003 859 
Q 1094 719 1248 617 
Q 1403 516 1631 459 
Q 1859 403 2178 403 
Q 2444 403 2666 448 
Q 2888 494 3047 587 
Q 3206 681 3295 829 
Q 3384 978 3384 1184 
Q 3384 1400 3286 1534 
Q 3188 1669 3009 1756 
Q 2831 1844 2584 1903 
Q 2338 1963 2038 2031 
Q 1853 2072 1667 2120 
Q 1481 2169 1311 2236 
Q 1141 2303 991 2393 
Q 841 2484 731 2611 
Q 622 2738 559 2905 
Q 497 3072 497 3291 
Q 497 3603 623 3826 
Q 750 4050 975 4194 
Q 1200 4338 1506 4403 
Q 1813 4469 2169 4469 
Q 2578 4469 2868 4405 
Q 3159 4341 3359 4212 
Q 3559 4084 3679 3895 
Q 3800 3706 3872 3456 
L 3284 3353 
Q 3241 3513 3158 3638 
Q 3075 3763 2940 3847 
Q 2806 3931 2614 3975 
Q 2422 4019 2163 4019 
Q 1856 4019 1648 3964 
Q 1441 3909 1314 3815 
Q 1188 3722 1133 3595 
Q 1078 3469 1078 3322 
Q 1078 3125 1176 2998 
Q 1275 2872 1444 2787 
Q 1613 2703 1834 2647 
Q 2056 2591 2306 2534 
Q 2509 2488 2711 2439 
Q 2913 2391 3097 2323 
Q 3281 2256 3442 2165 
Q 3603 2075 3722 1944 
Q 3841 1813 3908 1634 
Q 3975 1456 3975 1216 
z
" transform="scale(0.015625)"/>
      <path id="LiberationSans-52" d="M 3638 0 
L 2494 1828 
L 1122 1828 
L 1122 0 
L 525 0 
L 525 4403 
L 2597 4403 
Q 2972 4403 3261 4317 
Q 3550 4231 3747 4068 
Q 3944 3906 4047 3672 
Q 4150 3438 4150 3144 
Q 4150 2934 4089 2731 
Q 4028 2528 3897 2359 
Q 3766 2191 3562 2069 
Q 3359 1947 3075 1897 
L 4325 0 
L 3638 0 
z
M 3550 3138 
Q 3550 3338 3481 3484 
Q 3413 3631 3281 3729 
Q 3150 3828 2962 3876 
Q 2775 3925 2538 3925 
L 1122 3925 
L 1122 2300 
L 2563 2300 
Q 2819 2300 3006 2364 
Q 3194 2428 3314 2540 
Q 3434 2653 3492 2806 
Q 3550 2959 3550 3138 
z
" transform="scale(0.015625)"/>
      <path id="LiberationSans-43" d="M 2475 3981 
Q 2100 3981 1811 3856 
Q 1522 3731 1326 3500 
Q 1131 3269 1031 2944 
Q 931 2619 931 2222 
Q 931 1825 1039 1495 
Q 1147 1166 1348 928 
Q 1550 691 1842 559 
Q 2134 428 2500 428 
Q 2756 428 2967 495 
Q 3178 563 3348 684 
Q 3519 806 3653 973 
Q 3788 1141 3891 1344 
L 4378 1100 
Q 4259 853 4084 640 
Q 3909 428 3673 272 
Q 3438 116 3139 26 
Q 2841 -63 2472 -63 
Q 1938 -63 1536 107 
Q 1134 278 864 583 
Q 594 888 459 1306 
Q 325 1725 325 2222 
Q 325 2738 467 3153 
Q 609 3569 882 3861 
Q 1156 4153 1556 4311 
Q 1956 4469 2469 4469 
Q 3172 4469 3644 4194 
Q 4116 3919 4338 3378 
L 3772 3191 
Q 3709 3347 3603 3489 
Q 3497 3631 3337 3740 
Q 3178 3850 2964 3915 
Q 2750 3981 2475 3981 
z
" transform="scale(0.015625)"/>
      <path id="LiberationSans-3d" d="M 313 2675 
L 313 3138 
L 3422 3138 
L 3422 2675 
L 313 2675 
z
M 313 1075 
L 313 1538 
L 3422 1538 
L 3422 1075 
L 313 1075 
z
" transform="scale(0.015625)"/>
      <path id="LiberationSans-2e" d="M 584 0 
L 584 684 
L 1194 684 
L 1194 0 
L 584 0 
z
" transform="scale(0.015625)"/>
      <path id="LiberationSans-39" d="M 3256 2291 
Q 3256 1703 3145 1261 
Q 3034 819 2828 525 
Q 2622 231 2326 84 
Q 2031 -63 1663 -63 
Q 1409 -63 1206 -11 
Q 1003 41 843 150 
Q 684 259 571 434 
Q 459 609 391 856 
L 928 941 
Q 1016 656 1202 523 
Q 1388 391 1672 391 
Q 1900 391 2089 498 
Q 2278 606 2411 822 
Q 2544 1038 2619 1363 
Q 2694 1688 2700 2125 
Q 2634 1978 2520 1862 
Q 2406 1747 2261 1667 
Q 2116 1588 1947 1545 
Q 1778 1503 1606 1503 
Q 1306 1503 1064 1611 
Q 822 1719 653 1912 
Q 484 2106 392 2379 
Q 300 2653 300 2988 
Q 300 3328 398 3603 
Q 497 3878 684 4070 
Q 872 4263 1145 4366 
Q 1419 4469 1766 4469 
Q 2500 4469 2878 3925 
Q 3256 3381 3256 2291 
z
M 2644 2834 
Q 2644 3078 2586 3293 
Q 2528 3509 2414 3668 
Q 2300 3828 2133 3920 
Q 1966 4013 1747 4013 
Q 1544 4013 1381 3941 
Q 1219 3869 1106 3736 
Q 994 3603 933 3412 
Q 872 3222 872 2988 
Q 872 2766 926 2575 
Q 981 2384 1090 2245 
Q 1200 2106 1362 2026 
Q 1525 1947 1741 1947 
Q 1897 1947 2058 2000 
Q 2219 2053 2348 2162 
Q 2478 2272 2561 2439 
Q 2644 2606 2644 2834 
z
" transform="scale(0.015625)"/>
      <path id="LiberationSans-34" d="M 2753 997 
L 2753 0 
L 2222 0 
L 2222 997 
L 147 997 
L 147 1434 
L 2163 4403 
L 2753 4403 
L 2753 1441 
L 3372 1441 
L 3372 997 
L 2753 997 
z
M 2222 3769 
Q 2216 3753 2191 3708 
Q 2166 3663 2134 3606 
Q 2103 3550 2070 3492 
Q 2038 3434 2013 3397 
L 884 1734 
Q 869 1709 839 1668 
Q 809 1628 778 1586 
Q 747 1544 715 1503 
Q 684 1463 666 1441 
L 2222 1441 
L 2222 3769 
z
" transform="scale(0.015625)"/>
     </defs>
     <use xlink:href="#LiberationSans-53"/>
     <use xlink:href="#LiberationSans-52" x="66.699219"/>
     <use xlink:href="#LiberationSans-43" x="138.916016"/>
     <use xlink:href="#LiberationSans-43" x="211.132812"/>
     <use xlink:href="#LiberationSans-20" x="283.349609"/>
     <use xlink:href="#LiberationSans-3d" x="311.132812"/>
     <use xlink:href="#LiberationSans-20" x="369.53125"/>
     <use xlink:href="#LiberationSans-30" x="397.314453"/>
     <use xlink:href="#LiberationSans-2e" x="452.929688"/>
     <use xlink:href="#LiberationSans-39" x="480.712891"/>
     <use xlink:href="#LiberationSans-34" x="536.328125"/>
     <use xlink:href="#LiberationSans-39" x="591.943359"/>
    </g>
   </g>
   <g id="text_14">
    <!-- Train -->
    <g style="fill: #262626" transform="translate(125.319886 82.146701) scale(0.12 -0.12)">
     <use xlink:href="#LiberationSans-54"/>
     <use xlink:href="#LiberationSans-72" x="57.333984"/>
     <use xlink:href="#LiberationSans-61" x="90.634766"/>
     <use xlink:href="#LiberationSans-69" x="146.25"/>
     <use xlink:href="#LiberationSans-6e" x="168.466797"/>
    </g>
   </g>
  </g>
  <g id="axes_2">
   <g id="patch_8">
    <path d="M 252.392727 261.373091 
L 414.72 261.373091 
L 414.72 87.682909 
L 252.392727 87.682909 
z
" style="fill: #ffffff"/>
   </g>
   <g id="matplotlib.axis_3">
    <g id="xtick_6">
     <g id="line2d_22">
      <path d="M 259.77124 261.373091 
L 259.77124 87.682909 
" clip-path="url(#p886c5f6cf3)" style="fill: none; stroke: #cccccc; stroke-width: 0.8; stroke-linecap: round"/>
     </g>
     <g id="line2d_23"/>
     <g id="text_15">
      <!-- 50 -->
      <g style="fill: #262626" transform="translate(254.210302 272.119966) scale(0.1 -0.1)">
       <use xlink:href="#LiberationSans-35"/>
       <use xlink:href="#LiberationSans-30" x="55.615234"/>
      </g>
     </g>
    </g>
    <g id="xtick_7">
     <g id="line2d_24">
      <path d="M 294.907013 261.373091 
L 294.907013 87.682909 
" clip-path="url(#p886c5f6cf3)" style="fill: none; stroke: #cccccc; stroke-width: 0.8; stroke-linecap: round"/>
     </g>
     <g id="line2d_25"/>
     <g id="text_16">
      <!-- 55 -->
      <g style="fill: #262626" transform="translate(289.346075 272.119966) scale(0.1 -0.1)">
       <use xlink:href="#LiberationSans-35"/>
       <use xlink:href="#LiberationSans-35" x="55.615234"/>
      </g>
     </g>
    </g>
    <g id="xtick_8">
     <g id="line2d_26">
      <path d="M 330.042786 261.373091 
L 330.042786 87.682909 
" clip-path="url(#p886c5f6cf3)" style="fill: none; stroke: #cccccc; stroke-width: 0.8; stroke-linecap: round"/>
     </g>
     <g id="line2d_27"/>
     <g id="text_17">
      <!-- 60 -->
      <g style="fill: #262626" transform="translate(324.481849 272.119966) scale(0.1 -0.1)">
       <use xlink:href="#LiberationSans-36"/>
       <use xlink:href="#LiberationSans-30" x="55.615234"/>
      </g>
     </g>
    </g>
    <g id="xtick_9">
     <g id="line2d_28">
      <path d="M 365.17856 261.373091 
L 365.17856 87.682909 
" clip-path="url(#p886c5f6cf3)" style="fill: none; stroke: #cccccc; stroke-width: 0.8; stroke-linecap: round"/>
     </g>
     <g id="line2d_29"/>
     <g id="text_18">
      <!-- 65 -->
      <g style="fill: #262626" transform="translate(359.617622 272.119966) scale(0.1 -0.1)">
       <use xlink:href="#LiberationSans-36"/>
       <use xlink:href="#LiberationSans-35" x="55.615234"/>
      </g>
     </g>
    </g>
    <g id="xtick_10">
     <g id="line2d_30">
      <path d="M 400.314333 261.373091 
L 400.314333 87.682909 
" clip-path="url(#p886c5f6cf3)" style="fill: none; stroke: #cccccc; stroke-width: 0.8; stroke-linecap: round"/>
     </g>
     <g id="line2d_31"/>
     <g id="text_19">
      <!-- 70 -->
      <g style="fill: #262626" transform="translate(394.753395 272.119966) scale(0.1 -0.1)">
       <use xlink:href="#LiberationSans-37"/>
       <use xlink:href="#LiberationSans-30" x="55.615234"/>
      </g>
     </g>
    </g>
    <g id="text_20">
     <!-- True Performance[%] -->
     <g style="fill: #262626" transform="translate(286.229801 285.441841) scale(0.1 -0.1)">
      <use xlink:href="#LiberationSans-54"/>
      <use xlink:href="#LiberationSans-72" x="57.333984"/>
      <use xlink:href="#LiberationSans-75" x="90.634766"/>
      <use xlink:href="#LiberationSans-65" x="146.25"/>
      <use xlink:href="#LiberationSans-20" x="201.865234"/>
      <use xlink:href="#LiberationSans-50" x="229.648438"/>
      <use xlink:href="#LiberationSans-65" x="296.347656"/>
      <use xlink:href="#LiberationSans-72" x="351.962891"/>
      <use xlink:href="#LiberationSans-66" x="385.263672"/>
      <use xlink:href="#LiberationSans-6f" x="413.046875"/>
      <use xlink:href="#LiberationSans-72" x="468.662109"/>
      <use xlink:href="#LiberationSans-6d" x="501.962891"/>
      <use xlink:href="#LiberationSans-61" x="585.263672"/>
      <use xlink:href="#LiberationSans-6e" x="640.878906"/>
      <use xlink:href="#LiberationSans-63" x="696.494141"/>
      <use xlink:href="#LiberationSans-65" x="746.494141"/>
      <use xlink:href="#LiberationSans-5b" x="802.109375"/>
      <use xlink:href="#LiberationSans-25" x="829.892578"/>
      <use xlink:href="#LiberationSans-5d" x="918.808594"/>
     </g>
    </g>
   </g>
   <g id="matplotlib.axis_4">
    <g id="ytick_6">
     <g id="line2d_32">
      <path d="M 252.392727 253.478083 
L 414.72 253.478083 
" clip-path="url(#p886c5f6cf3)" style="fill: none; stroke: #cccccc; stroke-width: 0.8; stroke-linecap: round"/>
     </g>
     <g id="line2d_33"/>
     <g id="text_21">
      <!-- 50 -->
      <g style="fill: #262626" transform="translate(237.770852 257.10152) scale(0.1 -0.1)">
       <use xlink:href="#LiberationSans-35"/>
       <use xlink:href="#LiberationSans-30" x="55.615234"/>
      </g>
     </g>
    </g>
    <g id="ytick_7">
     <g id="line2d_34">
      <path d="M 252.392727 215.882805 
L 414.72 215.882805 
" clip-path="url(#p886c5f6cf3)" style="fill: none; stroke: #cccccc; stroke-width: 0.8; stroke-linecap: round"/>
     </g>
     <g id="line2d_35"/>
     <g id="text_22">
      <!-- 55 -->
      <g style="fill: #262626" transform="translate(237.770852 219.506243) scale(0.1 -0.1)">
       <use xlink:href="#LiberationSans-35"/>
       <use xlink:href="#LiberationSans-35" x="55.615234"/>
      </g>
     </g>
    </g>
    <g id="ytick_8">
     <g id="line2d_36">
      <path d="M 252.392727 178.287528 
L 414.72 178.287528 
" clip-path="url(#p886c5f6cf3)" style="fill: none; stroke: #cccccc; stroke-width: 0.8; stroke-linecap: round"/>
     </g>
     <g id="line2d_37"/>
     <g id="text_23">
      <!-- 60 -->
      <g style="fill: #262626" transform="translate(237.770852 181.910965) scale(0.1 -0.1)">
       <use xlink:href="#LiberationSans-36"/>
       <use xlink:href="#LiberationSans-30" x="55.615234"/>
      </g>
     </g>
    </g>
    <g id="ytick_9">
     <g id="line2d_38">
      <path d="M 252.392727 140.69225 
L 414.72 140.69225 
" clip-path="url(#p886c5f6cf3)" style="fill: none; stroke: #cccccc; stroke-width: 0.8; stroke-linecap: round"/>
     </g>
     <g id="line2d_39"/>
     <g id="text_24">
      <!-- 65 -->
      <g style="fill: #262626" transform="translate(237.770852 144.315688) scale(0.1 -0.1)">
       <use xlink:href="#LiberationSans-36"/>
       <use xlink:href="#LiberationSans-35" x="55.615234"/>
      </g>
     </g>
    </g>
    <g id="ytick_10">
     <g id="line2d_40">
      <path d="M 252.392727 103.096973 
L 414.72 103.096973 
" clip-path="url(#p886c5f6cf3)" style="fill: none; stroke: #cccccc; stroke-width: 0.8; stroke-linecap: round"/>
     </g>
     <g id="line2d_41"/>
     <g id="text_25">
      <!-- 70 -->
      <g style="fill: #262626" transform="translate(237.770852 106.72041) scale(0.1 -0.1)">
       <use xlink:href="#LiberationSans-37"/>
       <use xlink:href="#LiberationSans-30" x="55.615234"/>
      </g>
     </g>
    </g>
   </g>
   <g id="PathCollection_2">
    <g clip-path="url(#p886c5f6cf3)">
     <use xlink:href="#m7bb842d34e" x="348.300993" y="154.000979" style="fill: #00bfbf; fill-opacity: 0.5; stroke: #00bfbf; stroke-opacity: 0.5"/>
     <use xlink:href="#m7bb842d34e" x="303.771939" y="220.995763" style="fill: #00bfbf; fill-opacity: 0.5; stroke: #00bfbf; stroke-opacity: 0.5"/>
     <use xlink:href="#m7bb842d34e" x="354.823462" y="147.008257" style="fill: #00bfbf; fill-opacity: 0.5; stroke: #00bfbf; stroke-opacity: 0.5"/>
     <use xlink:href="#m7bb842d34e" x="299.55697" y="210.168323" style="fill: #00bfbf; fill-opacity: 0.5; stroke: #00bfbf; stroke-opacity: 0.5"/>
     <use xlink:href="#m7bb842d34e" x="384.601454" y="121.593849" style="fill: #00bfbf; fill-opacity: 0.5; stroke: #00bfbf; stroke-opacity: 0.5"/>
     <use xlink:href="#m7bb842d34e" x="360.424915" y="141.97049" style="fill: #00bfbf; fill-opacity: 0.5; stroke: #00bfbf; stroke-opacity: 0.5"/>
     <use xlink:href="#m7bb842d34e" x="338.580164" y="166.031467" style="fill: #00bfbf; fill-opacity: 0.5; stroke: #00bfbf; stroke-opacity: 0.5"/>
     <use xlink:href="#m7bb842d34e" x="382.518109" y="119.864467" style="fill: #00bfbf; fill-opacity: 0.5; stroke: #00bfbf; stroke-opacity: 0.5"/>
     <use xlink:href="#m7bb842d34e" x="364.370184" y="149.865498" style="fill: #00bfbf; fill-opacity: 0.5; stroke: #00bfbf; stroke-opacity: 0.5"/>
     <use xlink:href="#m7bb842d34e" x="387.338287" y="114.977081" style="fill: #00bfbf; fill-opacity: 0.5; stroke: #00bfbf; stroke-opacity: 0.5"/>
     <use xlink:href="#m7bb842d34e" x="363.608344" y="146.933066" style="fill: #00bfbf; fill-opacity: 0.5; stroke: #00bfbf; stroke-opacity: 0.5"/>
     <use xlink:href="#m7bb842d34e" x="365.411561" y="135.353721" style="fill: #00bfbf; fill-opacity: 0.5; stroke: #00bfbf; stroke-opacity: 0.5"/>
     <use xlink:href="#m7bb842d34e" x="371.16187" y="136.63196" style="fill: #00bfbf; fill-opacity: 0.5; stroke: #00bfbf; stroke-opacity: 0.5"/>
     <use xlink:href="#m7bb842d34e" x="326.779635" y="170.392519" style="fill: #00bfbf; fill-opacity: 0.5; stroke: #00bfbf; stroke-opacity: 0.5"/>
     <use xlink:href="#m7bb842d34e" x="380.747595" y="129.564048" style="fill: #00bfbf; fill-opacity: 0.5; stroke: #00bfbf; stroke-opacity: 0.5"/>
     <use xlink:href="#m7bb842d34e" x="301.43479" y="207.687035" style="fill: #00bfbf; fill-opacity: 0.5; stroke: #00bfbf; stroke-opacity: 0.5"/>
     <use xlink:href="#m7bb842d34e" x="374.478956" y="118.886989" style="fill: #00bfbf; fill-opacity: 0.5; stroke: #00bfbf; stroke-opacity: 0.5"/>
     <use xlink:href="#m7bb842d34e" x="373.719958" y="130.240763" style="fill: #00bfbf; fill-opacity: 0.5; stroke: #00bfbf; stroke-opacity: 0.5"/>
     <use xlink:href="#m7bb842d34e" x="376.864839" y="117.909512" style="fill: #00bfbf; fill-opacity: 0.5; stroke: #00bfbf; stroke-opacity: 0.5"/>
     <use xlink:href="#m7bb842d34e" x="304.672287" y="206.333605" style="fill: #00bfbf; fill-opacity: 0.5; stroke: #00bfbf; stroke-opacity: 0.5"/>
     <use xlink:href="#m7bb842d34e" x="367.059945" y="134.225863" style="fill: #00bfbf; fill-opacity: 0.5; stroke: #00bfbf; stroke-opacity: 0.5"/>
     <use xlink:href="#m7bb842d34e" x="380.887525" y="120.766753" style="fill: #00bfbf; fill-opacity: 0.5; stroke: #00bfbf; stroke-opacity: 0.5"/>
     <use xlink:href="#m7bb842d34e" x="348.462717" y="159.941032" style="fill: #00bfbf; fill-opacity: 0.5; stroke: #00bfbf; stroke-opacity: 0.5"/>
     <use xlink:href="#m7bb842d34e" x="342.368186" y="162.422321" style="fill: #00bfbf; fill-opacity: 0.5; stroke: #00bfbf; stroke-opacity: 0.5"/>
     <use xlink:href="#m7bb842d34e" x="378.376992" y="135.428911" style="fill: #00bfbf; fill-opacity: 0.5; stroke: #00bfbf; stroke-opacity: 0.5"/>
     <use xlink:href="#m7bb842d34e" x="378.079601" y="124.075138" style="fill: #00bfbf; fill-opacity: 0.5; stroke: #00bfbf; stroke-opacity: 0.5"/>
     <use xlink:href="#m7bb842d34e" x="355.297079" y="157.234172" style="fill: #00bfbf; fill-opacity: 0.5; stroke: #00bfbf; stroke-opacity: 0.5"/>
     <use xlink:href="#m7bb842d34e" x="329.472961" y="172.121902" style="fill: #00bfbf; fill-opacity: 0.5; stroke: #00bfbf; stroke-opacity: 0.5"/>
     <use xlink:href="#m7bb842d34e" x="378.913711" y="124.150328" style="fill: #00bfbf; fill-opacity: 0.5; stroke: #00bfbf; stroke-opacity: 0.5"/>
     <use xlink:href="#m7bb842d34e" x="363.746987" y="139.489201" style="fill: #00bfbf; fill-opacity: 0.5; stroke: #00bfbf; stroke-opacity: 0.5"/>
     <use xlink:href="#m7bb842d34e" x="377.440749" y="132.797242" style="fill: #00bfbf; fill-opacity: 0.5; stroke: #00bfbf; stroke-opacity: 0.5"/>
     <use xlink:href="#m7bb842d34e" x="363.923159" y="143.925444" style="fill: #00bfbf; fill-opacity: 0.5; stroke: #00bfbf; stroke-opacity: 0.5"/>
     <use xlink:href="#m7bb842d34e" x="367.200196" y="133.9251" style="fill: #00bfbf; fill-opacity: 0.5; stroke: #00bfbf; stroke-opacity: 0.5"/>
     <use xlink:href="#m7bb842d34e" x="348.707567" y="150.316641" style="fill: #00bfbf; fill-opacity: 0.5; stroke: #00bfbf; stroke-opacity: 0.5"/>
     <use xlink:href="#m7bb842d34e" x="380.887525" y="119.03737" style="fill: #00bfbf; fill-opacity: 0.5; stroke: #00bfbf; stroke-opacity: 0.5"/>
     <use xlink:href="#m7bb842d34e" x="380.546386" y="134.601815" style="fill: #00bfbf; fill-opacity: 0.5; stroke: #00bfbf; stroke-opacity: 0.5"/>
     <use xlink:href="#m7bb842d34e" x="349.995912" y="155.429599" style="fill: #00bfbf; fill-opacity: 0.5; stroke: #00bfbf; stroke-opacity: 0.5"/>
     <use xlink:href="#m7bb842d34e" x="375.158232" y="131.21824" style="fill: #00bfbf; fill-opacity: 0.5; stroke: #00bfbf; stroke-opacity: 0.5"/>
     <use xlink:href="#m7bb842d34e" x="372.963855" y="125.578949" style="fill: #00bfbf; fill-opacity: 0.5; stroke: #00bfbf; stroke-opacity: 0.5"/>
     <use xlink:href="#m7bb842d34e" x="349.46434" y="149.865498" style="fill: #00bfbf; fill-opacity: 0.5; stroke: #00bfbf; stroke-opacity: 0.5"/>
     <use xlink:href="#m7bb842d34e" x="339.96965" y="165.881086" style="fill: #00bfbf; fill-opacity: 0.5; stroke: #00bfbf; stroke-opacity: 0.5"/>
     <use xlink:href="#m7bb842d34e" x="385.12091" y="112.796554" style="fill: #00bfbf; fill-opacity: 0.5; stroke: #00bfbf; stroke-opacity: 0.5"/>
     <use xlink:href="#m7bb842d34e" x="356.775509" y="154.527312" style="fill: #00bfbf; fill-opacity: 0.5; stroke: #00bfbf; stroke-opacity: 0.5"/>
     <use xlink:href="#m7bb842d34e" x="340.551136" y="175.204715" style="fill: #00bfbf; fill-opacity: 0.5; stroke: #00bfbf; stroke-opacity: 0.5"/>
     <use xlink:href="#m7bb842d34e" x="341.649987" y="159.790651" style="fill: #00bfbf; fill-opacity: 0.5; stroke: #00bfbf; stroke-opacity: 0.5"/>
     <use xlink:href="#m7bb842d34e" x="376.064023" y="129.338477" style="fill: #00bfbf; fill-opacity: 0.5; stroke: #00bfbf; stroke-opacity: 0.5"/>
     <use xlink:href="#m7bb842d34e" x="355.841438" y="132.120527" style="fill: #00bfbf; fill-opacity: 0.5; stroke: #00bfbf; stroke-opacity: 0.5"/>
     <use xlink:href="#m7bb842d34e" x="349.443967" y="144.827731" style="fill: #00bfbf; fill-opacity: 0.5; stroke: #00bfbf; stroke-opacity: 0.5"/>
     <use xlink:href="#m7bb842d34e" x="334.468641" y="160.692938" style="fill: #00bfbf; fill-opacity: 0.5; stroke: #00bfbf; stroke-opacity: 0.5"/>
     <use xlink:href="#m7bb842d34e" x="350.636399" y="160.241795" style="fill: #00bfbf; fill-opacity: 0.5; stroke: #00bfbf; stroke-opacity: 0.5"/>
    </g>
   </g>
   <g id="line2d_42">
    <path d="M 259.77124 253.478083 
L 266.798394 245.959027 
L 273.825549 238.439972 
L 280.852704 230.920916 
L 287.879858 223.401861 
L 294.907013 215.882805 
L 301.934168 208.36375 
L 308.961322 200.844694 
L 315.988477 193.325639 
L 323.015632 185.806583 
L 330.042786 178.287528 
L 337.069941 170.768472 
L 344.097096 163.249417 
L 351.12425 155.730361 
L 358.151405 148.211306 
L 365.17856 140.69225 
L 372.205714 133.173195 
L 379.232869 125.654139 
L 386.260024 118.135084 
L 393.287178 110.616028 
L 400.314333 103.096973 
L 407.341488 95.577917 
" clip-path="url(#p886c5f6cf3)" style="fill: none; stroke-dasharray: 5.55,2.4; stroke-dashoffset: 0; stroke: #ff0000; stroke-width: 1.5"/>
   </g>
   <g id="patch_9">
    <path d="M 252.392727 261.373091 
L 252.392727 87.682909 
" style="fill: none; stroke: #cccccc; stroke-linejoin: miter; stroke-linecap: square"/>
   </g>
   <g id="patch_10">
    <path d="M 414.72 261.373091 
L 414.72 87.682909 
" style="fill: none; stroke: #cccccc; stroke-linejoin: miter; stroke-linecap: square"/>
   </g>
   <g id="patch_11">
    <path d="M 252.392727 261.373091 
L 414.72 261.373091 
" style="fill: none; stroke: #cccccc; stroke-linejoin: miter; stroke-linecap: square"/>
   </g>
   <g id="patch_12">
    <path d="M 252.392727 87.682909 
L 414.72 87.682909 
" style="fill: none; stroke: #cccccc; stroke-linejoin: miter; stroke-linecap: square"/>
   </g>
   <g id="text_26">
    <g id="patch_13">
     <path d="M 255.77124 130.718423 
L 367.37874 130.718423 
L 367.37874 90.569423 
L 255.77124 90.569423 
z
" style="fill: #ff0000; opacity: 0.2; stroke: #000000; stroke-linejoin: miter"/>
    </g>
    <!-- $R^2 = 0.924$ -->
    <g style="fill: #262626" transform="translate(259.77124 106.164423) scale(0.16 -0.16)">
     <defs>
      <path id="DejaVuSans-34" d="M 2419 4116 
L 825 1625 
L 2419 1625 
L 2419 4116 
z
M 2253 4666 
L 3047 4666 
L 3047 1625 
L 3713 1625 
L 3713 1100 
L 3047 1100 
L 3047 0 
L 2419 0 
L 2419 1100 
L 313 1100 
L 313 1709 
L 2253 4666 
z
" transform="scale(0.015625)"/>
     </defs>
     <use xlink:href="#DejaVuSans-Oblique-52" transform="translate(0 0.765625)"/>
     <use xlink:href="#DejaVuSans-32" transform="translate(76.499193 39.046875) scale(0.7)"/>
     <use xlink:href="#DejaVuSans-3d" transform="translate(143.252122 0.765625)"/>
     <use xlink:href="#DejaVuSans-30" transform="translate(246.523607 0.765625)"/>
     <use xlink:href="#DejaVuSans-2e" transform="translate(310.146654 0.765625)"/>
     <use xlink:href="#DejaVuSans-39" transform="translate(341.933763 0.765625)"/>
     <use xlink:href="#DejaVuSans-32" transform="translate(403.80681 0.765625)"/>
     <use xlink:href="#DejaVuSans-34" transform="translate(467.429857 0.765625)"/>
    </g>
    <!-- SRCC = 0.939 -->
    <g style="fill: #262626" transform="translate(259.77124 123.398423) scale(0.16 -0.16)">
     <defs>
      <path id="LiberationSans-33" d="M 3278 1216 
Q 3278 913 3179 675 
Q 3081 438 2892 273 
Q 2703 109 2423 23 
Q 2144 -63 1784 -63 
Q 1375 -63 1095 39 
Q 816 141 634 308 
Q 453 475 362 689 
Q 272 903 244 1131 
L 825 1184 
Q 850 1009 917 865 
Q 984 722 1100 619 
Q 1216 516 1384 459 
Q 1553 403 1784 403 
Q 2209 403 2451 612 
Q 2694 822 2694 1234 
Q 2694 1478 2586 1626 
Q 2478 1775 2317 1858 
Q 2156 1941 1967 1969 
Q 1778 1997 1619 1997 
L 1300 1997 
L 1300 2484 
L 1606 2484 
Q 1766 2484 1937 2517 
Q 2109 2550 2251 2636 
Q 2394 2722 2486 2869 
Q 2578 3016 2578 3244 
Q 2578 3597 2370 3801 
Q 2163 4006 1753 4006 
Q 1381 4006 1151 3815 
Q 922 3625 884 3278 
L 319 3322 
Q 353 3613 478 3828 
Q 603 4044 795 4186 
Q 988 4328 1234 4398 
Q 1481 4469 1759 4469 
Q 2128 4469 2393 4376 
Q 2659 4284 2828 4126 
Q 2997 3969 3076 3756 
Q 3156 3544 3156 3303 
Q 3156 3109 3103 2940 
Q 3050 2772 2937 2637 
Q 2825 2503 2651 2406 
Q 2478 2309 2234 2259 
L 2234 2247 
Q 2500 2219 2697 2126 
Q 2894 2034 3022 1896 
Q 3150 1759 3214 1584 
Q 3278 1409 3278 1216 
z
" transform="scale(0.015625)"/>
     </defs>
     <use xlink:href="#LiberationSans-53"/>
     <use xlink:href="#LiberationSans-52" x="66.699219"/>
     <use xlink:href="#LiberationSans-43" x="138.916016"/>
     <use xlink:href="#LiberationSans-43" x="211.132812"/>
     <use xlink:href="#LiberationSans-20" x="283.349609"/>
     <use xlink:href="#LiberationSans-3d" x="311.132812"/>
     <use xlink:href="#LiberationSans-20" x="369.53125"/>
     <use xlink:href="#LiberationSans-30" x="397.314453"/>
     <use xlink:href="#LiberationSans-2e" x="452.929688"/>
     <use xlink:href="#LiberationSans-39" x="480.712891"/>
     <use xlink:href="#LiberationSans-33" x="536.328125"/>
     <use xlink:href="#LiberationSans-39" x="591.943359"/>
    </g>
   </g>
   <g id="text_27">
    <!-- Test -->
    <g style="fill: #262626" transform="translate(322.555739 81.682909) scale(0.12 -0.12)">
     <defs>
      <path id="LiberationSans-73" d="M 2969 934 
Q 2969 697 2876 511 
Q 2784 325 2609 198 
Q 2434 72 2179 4 
Q 1925 -63 1597 -63 
Q 1303 -63 1067 -17 
Q 831 28 653 128 
Q 475 228 354 392 
Q 234 556 178 794 
L 675 891 
Q 747 619 972 492 
Q 1197 366 1597 366 
Q 1778 366 1929 391 
Q 2081 416 2190 477 
Q 2300 538 2361 639 
Q 2422 741 2422 891 
Q 2422 1044 2350 1142 
Q 2278 1241 2150 1306 
Q 2022 1372 1839 1420 
Q 1656 1469 1438 1528 
Q 1234 1581 1034 1647 
Q 834 1713 673 1820 
Q 513 1928 413 2087 
Q 313 2247 313 2488 
Q 313 2950 642 3192 
Q 972 3434 1603 3434 
Q 2163 3434 2492 3237 
Q 2822 3041 2909 2606 
L 2403 2544 
Q 2375 2675 2300 2764 
Q 2225 2853 2119 2908 
Q 2013 2963 1880 2986 
Q 1747 3009 1603 3009 
Q 1222 3009 1040 2893 
Q 859 2778 859 2544 
Q 859 2406 926 2317 
Q 994 2228 1114 2167 
Q 1234 2106 1403 2061 
Q 1572 2016 1775 1966 
Q 1909 1931 2050 1892 
Q 2191 1853 2323 1798 
Q 2456 1744 2573 1670 
Q 2691 1597 2778 1494 
Q 2866 1391 2917 1253 
Q 2969 1116 2969 934 
z
" transform="scale(0.015625)"/>
     </defs>
     <use xlink:href="#LiberationSans-54"/>
     <use xlink:href="#LiberationSans-65" x="49.958984"/>
     <use xlink:href="#LiberationSans-73" x="105.574219"/>
     <use xlink:href="#LiberationSans-74" x="155.574219"/>
    </g>
   </g>
  </g>
  <g id="text_28">
   <!-- CIFAR-100 -->
   <g style="fill: #262626" transform="translate(200.391563 70.90425) scale(0.12 -0.12)">
    <defs>
     <path id="LiberationSans-Bold-43" d="M 2484 663 
Q 2744 663 2933 736 
Q 3122 809 3261 928 
Q 3400 1047 3492 1197 
Q 3584 1347 3644 1500 
L 4447 1197 
Q 4350 959 4194 731 
Q 4038 503 3803 328 
Q 3569 153 3245 45 
Q 2922 -63 2484 -63 
Q 1913 -63 1494 107 
Q 1075 278 801 583 
Q 528 888 395 1306 
Q 263 1725 263 2222 
Q 263 2738 395 3153 
Q 528 3569 797 3861 
Q 1066 4153 1477 4311 
Q 1888 4469 2444 4469 
Q 2875 4469 3198 4378 
Q 3522 4288 3758 4123 
Q 3994 3959 4148 3736 
Q 4303 3513 4391 3244 
L 3578 3022 
Q 3534 3163 3443 3292 
Q 3353 3422 3214 3522 
Q 3075 3622 2887 3683 
Q 2700 3744 2463 3744 
Q 2128 3744 1887 3636 
Q 1647 3528 1492 3328 
Q 1338 3128 1264 2848 
Q 1191 2569 1191 2222 
Q 1191 1878 1264 1592 
Q 1338 1306 1494 1100 
Q 1650 894 1895 778 
Q 2141 663 2484 663 
z
" transform="scale(0.015625)"/>
     <path id="LiberationSans-Bold-49" d="M 428 0 
L 428 4403 
L 1350 4403 
L 1350 0 
L 428 0 
z
" transform="scale(0.015625)"/>
     <path id="LiberationSans-Bold-46" d="M 1350 3691 
L 1350 2328 
L 3603 2328 
L 3603 1616 
L 1350 1616 
L 1350 0 
L 428 0 
L 428 4403 
L 3675 4403 
L 3675 3691 
L 1350 3691 
z
" transform="scale(0.015625)"/>
     <path id="LiberationSans-Bold-41" d="M 3541 0 
L 3150 1125 
L 1472 1125 
L 1081 0 
L 159 0 
L 1766 4403 
L 2853 4403 
L 4453 0 
L 3541 0 
z
M 2509 3084 
Q 2472 3194 2436 3305 
Q 2400 3416 2373 3508 
Q 2347 3600 2330 3659 
Q 2313 3719 2309 3725 
Q 2306 3716 2290 3656 
Q 2275 3597 2248 3506 
Q 2222 3416 2186 3305 
Q 2150 3194 2113 3084 
L 1678 1819 
L 2944 1819 
L 2509 3084 
z
" transform="scale(0.015625)"/>
     <path id="LiberationSans-Bold-52" d="M 3453 0 
L 2431 1672 
L 1350 1672 
L 1350 0 
L 428 0 
L 428 4403 
L 2628 4403 
Q 3041 4403 3348 4311 
Q 3656 4219 3862 4048 
Q 4069 3878 4170 3636 
Q 4272 3394 4272 3091 
Q 4272 2844 4198 2639 
Q 4125 2434 3995 2275 
Q 3866 2116 3687 2008 
Q 3509 1900 3300 1850 
L 4491 0 
L 3453 0 
z
M 3344 3053 
Q 3344 3375 3133 3531 
Q 2922 3688 2531 3688 
L 1350 3688 
L 1350 2388 
L 2556 2388 
Q 2763 2388 2911 2436 
Q 3059 2484 3154 2573 
Q 3250 2663 3297 2784 
Q 3344 2906 3344 3053 
z
" transform="scale(0.015625)"/>
     <path id="LiberationSans-Bold-2d" d="M 250 1278 
L 250 2041 
L 1875 2041 
L 1875 1278 
L 250 1278 
z
" transform="scale(0.015625)"/>
     <path id="LiberationSans-Bold-31" d="M 403 0 
L 403 653 
L 1494 653 
L 1494 3656 
L 438 2997 
L 438 3688 
L 1541 4403 
L 2372 4403 
L 2372 653 
L 3381 653 
L 3381 0 
L 403 0 
z
" transform="scale(0.015625)"/>
     <path id="LiberationSans-Bold-30" d="M 3297 2203 
Q 3297 1572 3181 1139 
Q 3066 706 2861 439 
Q 2656 172 2376 54 
Q 2097 -63 1766 -63 
Q 1434 -63 1156 53 
Q 878 169 678 436 
Q 478 703 365 1136 
Q 253 1569 253 2203 
Q 253 2869 364 3305 
Q 475 3741 678 4000 
Q 881 4259 1164 4364 
Q 1447 4469 1791 4469 
Q 2113 4469 2389 4364 
Q 2666 4259 2867 4000 
Q 3069 3741 3183 3305 
Q 3297 2869 3297 2203 
z
M 2416 2203 
Q 2416 2669 2381 2973 
Q 2347 3278 2272 3458 
Q 2197 3638 2076 3709 
Q 1956 3781 1784 3781 
Q 1600 3781 1475 3707 
Q 1350 3634 1273 3453 
Q 1197 3272 1164 2967 
Q 1131 2663 1131 2203 
Q 1131 1750 1165 1447 
Q 1200 1144 1275 961 
Q 1350 778 1472 703 
Q 1594 628 1772 628 
Q 1944 628 2066 703 
Q 2188 778 2266 961 
Q 2344 1144 2380 1447 
Q 2416 1750 2416 2203 
z
" transform="scale(0.015625)"/>
    </defs>
    <use xlink:href="#LiberationSans-Bold-43"/>
    <use xlink:href="#LiberationSans-Bold-49" x="72.216797"/>
    <use xlink:href="#LiberationSans-Bold-46" x="100"/>
    <use xlink:href="#LiberationSans-Bold-41" x="155.583984"/>
    <use xlink:href="#LiberationSans-Bold-52" x="227.800781"/>
    <use xlink:href="#LiberationSans-Bold-2d" x="300.017578"/>
    <use xlink:href="#LiberationSans-Bold-31" x="333.318359"/>
    <use xlink:href="#LiberationSans-Bold-30" x="388.933594"/>
    <use xlink:href="#LiberationSans-Bold-30" x="444.548828"/>
   </g>
  </g>
 </g>
 <defs>
  <clipPath id="p0e23c05640">
   <rect x="57.6" y="88.146701" width="162.327273" height="172.762597"/>
  </clipPath>
  <clipPath id="p886c5f6cf3">
   <rect x="252.392727" y="87.682909" width="162.327273" height="173.690182"/>
  </clipPath>
 </defs>
</svg>
